<svg id="Layer_1" data-name="Layer 1" xmlns="http://www.w3.org/2000/svg" viewBox="0 0 792 612"><defs><style>.cls-1{fill:#f8bb15;}.cls-2{fill:#e94435;}.cls-3{fill:#547dbe;}.cls-4{fill:#fff;}</style></defs><title>AI logo</title><path class="cls-1" d="M611.17,148.53l18.89-31.8a3.27,3.27,0,0,0-5.62-3.34l-19.19,32.3a105,105,0,0,0-87,.24l-19.34-32.54a3.27,3.27,0,1,0-5.62,3.34l19.06,32.08c-32.32,17.09-54.26,49.41-54.26,81.74H666C666,198,643.78,165.55,611.17,148.53Z"/><path class="cls-2" d="M608.91,247.2h-5.1a44.81,44.81,0,0,1-83.58,0H400.86v86.74l69.33,10V489.16H653.84V344l69.34-20V247.2Z"/><path class="cls-3" d="M171.77,405.93l-29.56,84.23H68.82L193.26,157.7a31.12,31.12,0,0,1,29.14-20.21h33.22a31.13,31.13,0,0,1,29.13,20.17l124.91,332.5H336.28l-29.56-84.23m-21.67-61.07L254,256.2l-12.81-42.36h-3.94l-12.8,42.36-31.53,88.66"/><circle class="cls-4" cx="513.36" cy="191.65" r="8.66"/><circle class="cls-4" cx="610.4" cy="191.65" r="8.66"/></svg>