<svg version="1.1" xmlns="http://www.w3.org/2000/svg" xmlns:xlink="http://www.w3.org/1999/xlink" x="0px" y="0px" viewBox="0 0 100 64.941" enable-background="new 0 0 100 64.941" xml:space="preserve"><path d="M98.766,53.579c-0.738-1.212-1.728-2.256-2.976-3.037c-0.707-0.439-1.877-1.139-3.429-2.052
	C81.536,42.112,52.438,25.42,52.43,25.416l-0.924-0.452v-5.84c0-3.6,6.914-4.569,6.914-11.2C58.42,2.708,53.527,0,49,0
	c-5.417,0-8.45,3.354-8.45,3.354l3.881,4.731c0,0,1.9-1.739,3.841-1.739c1.537,0,2.873,1.011,2.873,2.385
	c0,3.396-6.35,4.367-6.35,9.825v6.448l-1.134,0.465c-0.002,0.001-8.318,5.184-17.354,10.868c-4.519,2.841-9.216,5.808-13.149,8.315
	c-1.967,1.256-3.742,2.396-5.211,3.352c-1.472,0.958-2.629,1.723-3.404,2.262c-1.406,0.979-2.516,2.062-3.309,3.296
	C0.44,54.792-0.005,56.202,0,57.582c-0.002,1.128,0.289,2.2,0.756,3.107c0.707,1.368,1.766,2.388,2.958,3.097
	c1.118,0.655,2.376,1.062,3.733,1.119l0.044,0.008h0.264c0.679-0.002,1.735-0.002,3.105-0.002c10.622,0,40.092,0.029,60.3,0.03
	c9.863-0.001,17.497-0.008,19.729-0.028c1.301-0.016,2.479-0.158,3.562-0.455c1.615-0.438,3.066-1.268,4.081-2.506
	c0.504-0.613,0.884-1.312,1.122-2.026c0.24-0.714,0.345-1.44,0.345-2.134C99.992,56.201,99.493,54.793,98.766,53.579z
	 M93.331,57.804c-0.181,0.132-0.94,0.467-2.509,0.479c-2.145,0.021-9.813,0.027-19.661,0.027c-20.204,0-49.67-0.029-60.3-0.029
	c-1.345,0-2.388,0-3.076,0.002c-0.025-0.002-0.044-0.002-0.056-0.002c-0.002,0-0.005,0-0.007,0l0,0
	c-0.002,0.001-0.004,0.001-0.006,0.001s-0.004,0-0.005,0c-0.196-0.003-0.604-0.146-0.829-0.354
	c-0.123-0.104-0.194-0.206-0.222-0.262c-0.028-0.062-0.024-0.063-0.026-0.084c0.005-0.022-0.013-0.121,0.188-0.445
	c0.2-0.315,0.648-0.828,1.506-1.423c0.657-0.457,1.792-1.21,3.235-2.147c5.063-3.292,13.979-8.918,21.612-13.709
	c3.818-2.396,7.317-4.587,9.862-6.177c1.272-0.796,2.307-1.44,3.022-1.887c0.109-0.069,0.211-0.133,0.306-0.191l3.532,0.004
	c0.241,0.14,0.535,0.31,0.878,0.506c3.675,2.108,12.932,7.427,21.84,12.57c4.453,2.573,8.82,5.103,12.355,7.163
	c1.768,1.03,3.327,1.944,4.582,2.688c1.254,0.739,2.213,1.314,2.738,1.643c0.262,0.156,0.596,0.487,0.802,0.837
	c0.205,0.331,0.277,0.654,0.277,0.766C93.357,57.785,93.346,57.793,93.331,57.804z"></path></svg>