<svg version="1.1" x="0px" y="0px" viewBox="0 0 100 100" enable-background="new 0 0 100 100" xml:space="preserve">

    <path d="M90.3,27.8H79.6l-1.1-10.7c-0.2-1.9-1.1-3.7-2.6-4.9s-3.4-1.8-5.3-1.6L9,17.2c-4,0.4-6.9,4-6.4,7.9l4.9,46.7     c0.4,3.7,3.5,6.5,7.2,6.5c0.3,0,0.5,0,0.8,0l5.8-0.6v4.4c0,4,3.2,7.2,7.2,7.2h61.8c4,0,7.2-3.2,7.2-7.2v-47     C97.5,31.1,94.3,27.8,90.3,27.8z M21.2,35.1v36.7l-6.4,0.7c-0.7,0.1-1.5-0.5-1.5-1.2L8.4,24.5c0-0.5,0.2-0.8,0.3-1     c0.1-0.2,0.4-0.4,0.9-0.5l61.5-6.5h0.1c0.4,0,0.7,0.2,0.9,0.3c0.2,0.1,0.4,0.4,0.5,0.9l1.1,10.1H28.4     C24.4,27.8,21.2,31.1,21.2,35.1z M91.6,82.1c0,0.8-0.6,1.4-1.4,1.4H28.4c-0.8,0-1.4-0.6-1.4-1.4V61.9l11.8-11.8     c1.3-1.3,3.4-1.3,4.7,0l23.7,23.7c0.6,0.6,1.3,0.9,2.1,0.9s1.5-0.3,2.1-0.9c1.1-1.1,1.1-3,0-4.1l-2.6-2.6l6.1-6.1     c0.2-0.2,0.6-0.2,0.8,0l15.9,16V82.1z M91.6,68.7L79.8,56.9c-2.5-2.5-6.6-2.5-9.1,0L64.7,63l-17-17c-1.7-1.7-4-2.7-6.5-2.7     s-4.8,1-6.5,2.7L27,53.6V35.1c0-0.8,0.6-1.4,1.4-1.4h61.8c0.8,0,1.4,0.6,1.4,1.4V68.7z"></path>
    <circle cx="78.3" cy="44.6" r="5.6"></circle>
</svg>